<svg width="413" height="169" viewBox="0 0 413 169" fill="none" xmlns="http://www.w3.org/2000/svg">
<path opacity="0.34" d="M-111 76.8788C-111 76.8788 9.02519 -26.1187 81.1333 7.88549C115.597 24.1378 114.249 64.0446 150.127 76.8788C209.453 98.1013 234.261 -4.8276 295.973 7.88549C339.867 16.9278 399.027 76.8788 399.027 76.8788" stroke="#8AECC3" stroke-width="1.74667"/>
<path opacity="0.34" d="M-111 120.717C-111 120.717 9.02519 17.7197 81.1333 51.7239C115.597 67.9762 114.249 107.883 150.127 120.717C209.453 141.94 234.261 39.0108 295.973 51.7239C339.867 60.7662 399.027 120.717 399.027 120.717" stroke="#8AECC3" stroke-width="1.74667"/>
<path opacity="0.34" d="M-111 164.556C-111 164.556 9.02519 61.5581 81.1333 95.5622C115.597 111.815 114.249 151.721 150.127 164.556C209.453 185.778 234.261 82.8492 295.973 95.5622C339.867 104.605 399.027 164.556 399.027 164.556" stroke="#8AECC3" stroke-width="1.74667"/>
</svg>
