<?xml version="1.0" standalone="no"?>
<!DOCTYPE svg PUBLIC "-//W3C//DTD SVG 20010904//EN"
 "http://www.w3.org/TR/2001/REC-SVG-20010904/DTD/svg10.dtd">
<svg version="1.0" xmlns="http://www.w3.org/2000/svg"
 width="1265.000000pt" height="1265.000000pt" viewBox="0 0 1265.000000 1265.000000"
 preserveAspectRatio="xMidYMid meet">
<metadata>
Created by potrace 1.14, written by Peter Selinger 2001-2017
</metadata>
<g transform="translate(0.000000,1265.000000) scale(0.100000,-0.100000)"
fill="#000000" stroke="none">
<path d="M0 6325 l0 -6325 6325 0 6325 0 0 6325 0 6325 -6325 0 -6325 0 0
-6325z m5078 3635 c110 -18 170 -47 238 -114 86 -85 107 -142 108 -296 0 -95
-3 -127 -22 -180 -43 -124 -122 -200 -252 -241 -51 -17 -90 -21 -185 -20 -66
0 -136 4 -155 9 l-35 8 -3 412 -2 412 22 4 c78 17 200 20 286 6z m2752 -5 c6
-4 10 -154 10 -420 l0 -414 -57 -7 c-378 -50 -593 107 -593 431 0 290 171 432
507 421 68 -3 127 -8 133 -11z m-3270 -418 l0 -134 -562 1 c-605 0 -648 -3
-747 -54 -54 -27 -113 -88 -142 -148 l-24 -47 -3 -1412 -2 -1413 -140 0 -140
0 0 1363 c0 796 5 1392 10 1435 35 270 200 453 475 527 39 11 181 14 663 14
l612 1 0 -133z m4790 112 c115 -32 205 -83 285 -164 82 -81 127 -160 155 -271
19 -75 20 -116 20 -1481 l0 -1403 -135 0 -135 0 0 1384 c0 1354 0 1385 -20
1448 -23 75 -78 144 -145 183 -93 55 -139 59 -752 59 l-563 -1 0 134 0 133
608 0 c583 0 610 -1 682 -21z m-4097 -1512 c129 -47 230 -134 288 -249 105
-207 67 -441 -96 -605 -204 -204 -531 -199 -732 9 -101 106 -143 210 -143 359
0 151 51 270 159 372 146 137 343 180 524 114z m1268 3 c236 -80 383 -317 349
-562 -25 -185 -164 -354 -345 -419 -88 -32 -236 -32 -327 -1 -370 127 -478
583 -203 857 140 140 340 187 526 125z m1282 -3 c129 -47 230 -134 288 -249
105 -207 67 -441 -96 -605 -204 -204 -531 -199 -732 9 -101 106 -143 210 -143
359 0 151 51 269 160 373 144 136 342 179 523 113z m-1038 -2342 c14 -13 25
-30 25 -36 0 -7 8 -21 18 -32 9 -10 97 -283 198 -619 122 -406 183 -594 188
-582 4 11 52 141 107 289 63 172 107 276 120 288 39 32 106 16 130 -32 7 -14
19 -33 26 -42 7 -8 63 -136 125 -285 l113 -269 685 0 c654 0 687 1 723 19 112
55 132 182 143 866 l7 430 284 0 283 0 0 -35 c0 -29 4 -35 20 -35 21 0 21 -1
18 -672 -4 -663 -4 -674 -26 -746 -28 -92 -77 -191 -130 -261 -64 -85 -131
-133 -242 -172 l-65 -24 -845 -3 c-465 -1 -854 0 -866 2 -13 4 -66 70 -139
172 l-118 166 -13 -33 c-15 -38 -114 -291 -193 -495 -28 -72 -60 -139 -70
-148 -37 -33 -112 -18 -131 27 -6 12 -19 33 -29 47 -11 14 -94 241 -185 505
-90 264 -170 495 -177 514 l-12 34 -24 -64 c-13 -35 -46 -120 -73 -189 -27
-69 -163 -420 -303 -780 -140 -360 -274 -703 -297 -763 -45 -113 -72 -147
-119 -147 -32 1 -48 13 -86 66 -17 23 -161 344 -320 713 -160 369 -293 671
-296 671 -3 0 -36 -67 -73 -149 l-69 -150 -136 -3 c-311 -8 -1299 -7 -1456 2
-349 19 -527 102 -674 315 -29 42 -64 103 -78 137 -51 126 -53 160 -53 854 l0
644 285 0 285 0 0 -35 c0 -28 4 -35 20 -35 20 0 20 -7 20 -277 0 -518 25 -856
65 -920 31 -47 47 -48 740 -48 l650 0 217 325 c135 201 228 329 244 338 34 18
79 7 105 -26 34 -44 84 -157 335 -769 131 -320 242 -579 245 -575 3 4 171 459
373 1012 244 668 374 1011 388 1023 30 25 84 22 113 -8z"/>
</g>
</svg>
