<svg width="201" height="199" viewBox="0 0 201 199" fill="none" xmlns="http://www.w3.org/2000/svg">
<path fill-rule="evenodd" clip-rule="evenodd" d="M95.4641 5.14426C97.5917 12.5657 104.082 24.0396 110.483 31.6982C113.963 35.8617 119.456 44.7568 122.688 51.4683C129.964 66.5685 132.544 68.6208 128.205 55.8542C123.862 43.0823 122.197 28.8234 123.674 17.0602C124.326 11.8651 125.188 7.08269 125.588 6.43297C125.99 5.78326 124.043 4.61913 121.263 3.84751C112.227 1.33706 112.373 1.14817 113.294 14.1492C113.75 20.5968 114.474 27.3779 114.901 29.2199C115.373 31.2642 114.381 30.2206 112.351 26.5407C109.446 21.2733 107.88 16.2256 105.394 4.10203C104.88 1.59561 103.893 1.08789 99.5385 1.08789C94.3446 1.08789 94.3112 1.12138 95.4641 5.14426ZM78.2997 3.384C76.5978 3.70953 74.8786 4.82543 74.4809 5.86363C73.5369 8.32183 78.9384 17.4473 86.28 25.8012L92.1059 32.4296L87.4195 29.82C84.842 28.3853 78.6144 23.1528 73.5812 18.1921C64.432 9.17651 64.4279 9.17517 60.5261 11.194C58.3798 12.3045 56.6231 13.7969 56.6231 14.5095C56.6231 17.667 76.0328 29.674 88.3929 34.1631C93.1556 35.8925 100.76 39.9288 105.291 43.1332C118.477 52.4556 120.942 52.9178 112.102 44.4072C97.9652 30.798 91.1391 20.787 87.3565 8.12089C85.6346 2.35517 85.1124 2.08189 78.2997 3.384ZM133.463 10.7104C131.428 14.0058 131.308 39.1331 133.287 47.5794C134.723 53.6988 134.917 57.9239 134.028 63.5972C133.364 67.8358 133.014 74.0409 133.25 77.3886C133.727 84.1282 133.764 84.0385 137.531 67.399C140.217 55.5381 146.104 43.4373 153.009 35.5884C155.966 32.2287 158.385 29.0015 158.385 28.4175C158.385 27.0591 151.506 19.8426 150.209 19.8426C148.619 19.8426 143.389 29.0699 140.016 37.8243L136.879 45.9651L137.444 37.2576C137.932 29.6928 139.44 23.6913 142.833 15.7929C143.424 14.4184 142.434 12.9998 139.794 11.4391C135.15 8.69425 134.738 8.64736 133.463 10.7104ZM44.8213 23.3939C42.4754 25.2318 40.5553 27.4998 40.5553 28.4349C40.5553 30.4162 50.8721 36.2783 60.9653 40.032L68.0043 42.6496L59.1108 41.9409C54.2181 41.5511 46.7427 40.036 42.4982 38.5745C38.2536 37.1129 34.5889 35.918 34.3545 35.918C33.4159 35.918 29.6949 44.2531 30.3429 44.9028C30.7272 45.286 35.7712 46.225 41.5515 46.9886C50.0098 48.1058 54.5917 47.9491 65.0049 46.1902C72.1243 44.9859 79.6709 44.5358 79.6709 44.5358C79.6709 44.5358 102.148 46.497 102.148 45.2779C102.148 44.5505 100.78 43.9557 99.1088 43.9557C93.931 43.9557 76.8763 38.7218 68.9027 34.6855C64.7265 32.5716 58.5592 28.4148 55.1984 25.4475L49.0872 20.0542L44.8213 23.3939ZM158.209 42.951C152.628 49.9679 146.855 61.2703 143.67 71.4179C142.745 74.3651 140.938 77.982 139.657 79.4556C136.085 83.5642 127.589 96.6778 127.589 98.0857C127.589 98.7743 131.002 95.5632 135.175 90.9496C144.779 80.3331 158.407 70.7186 168.57 67.391C172.911 65.9697 176.652 64.6984 176.885 64.5644C177.649 64.1237 174.405 53.4616 173.296 52.7758C172.199 52.0979 162.705 57.9387 153.56 64.9167C149.308 68.1613 148.79 68.31 150.07 65.9147C152.444 61.4779 160.738 51.9599 165.596 48.0978C169.973 44.6161 170.004 44.5157 167.982 40.245C166.854 37.8645 165.454 35.918 164.869 35.918C164.282 35.918 161.286 39.0822 158.209 42.951ZM74.0297 51.6143C61.9093 55.6881 39.8215 57.3037 31.9202 54.6954C25.8774 52.6994 24.5759 53.7175 24.1421 60.7786C24.1421 60.7786 23.8383 62.2139 25.0593 63.8812C26.6034 65.9898 30.5129 66.0474 30.5129 66.0474C34.1951 66.042 40.5218 65.5611 44.5722 64.9784C51.2697 64.0165 51.6863 64.0996 49.1717 65.8973C45.2203 68.7213 30.6576 73.4273 25.8694 73.4273C22.0252 73.4273 21.8096 73.7127 21.8096 78.7858C21.8096 82.1965 22.4174 84.1322 23.4833 84.1121C29.4832 83.9983 53.9344 69.8492 59.2916 63.3909C60.2021 62.2938 66.6024 58.7156 73.5142 55.4403C80.426 52.1636 86.0805 49.1441 86.0805 48.7288C86.0805 47.649 85.2035 47.858 74.0297 51.6143ZM88.654 60.3982C78.0078 67.5759 74.6095 81.3244 81.0995 90.9589C86.9856 99.6986 99.5239 103.92 108.052 100.032L111.402 98.5037L107.445 94.8063C102.587 90.2663 102.425 86.4243 106.902 81.946C109.57 79.2761 111.107 78.7269 113.931 79.4342C115.92 79.9312 118.028 81.1945 118.618 82.242C120.556 85.6862 122.233 84.23 122.212 79.1207C122.183 72.7066 117.446 64.3219 111.638 60.4062C105.394 56.1958 94.891 56.1931 88.654 60.3982ZM59.9705 71.4206C51.073 80.325 45.5618 84.6198 38.9097 87.8309C33.9542 90.2248 28.1978 92.2021 28.1978 92.2021C28.1978 92.2021 22.8996 94.3187 24.4354 100.028C25.2575 103.081 26.6702 105.578 27.5753 105.578C29.5088 105.578 37.4515 100.376 45.8282 93.6234L51.7706 88.8329L49.1756 93.5216C47.7482 96.1004 42.7847 101.952 38.1438 106.525C29.7511 114.799 29.7189 114.859 31.9376 118.247C34.7321 122.514 35.249 122.495 39.4935 117.97C44.6553 112.467 50.7958 101.79 54.573 91.752C56.4208 86.8409 61.3469 77.69 65.5205 71.4139C69.6954 65.1391 72.8647 59.8597 72.5661 59.6828C72.2662 59.506 66.5984 64.7881 59.9705 71.4206ZM95.1963 70.9678C95.5069 73.6564 94.8923 74.7643 92.7044 75.4595C88.8133 76.6947 85.4927 73.3724 86.7273 69.4795C88.1412 65.0239 94.6419 66.1653 95.1963 70.9678ZM169.092 76.6719C159.351 80.6385 151.073 85.9059 143.379 93.038C139.913 96.2518 135.617 98.8801 135.617 98.8801C135.617 98.8801 114.199 108.641 114.199 109.826C114.199 110.416 117.252 109.694 120.982 108.223C133.034 103.47 150.852 101.109 162.073 102.778C167.469 103.582 172.403 104.239 173.038 104.239C174.259 104.239 177.131 97.0488 177.131 93.9918C177.131 91.7721 166.177 91.535 155.674 93.5283C151.772 94.2678 148.326 94.6201 148.015 94.3093C146.95 93.2457 160.396 87.9743 169.432 85.9139C178.369 83.8764 178.47 83.804 178.47 79.39C178.47 76.9345 178.016 74.6437 177.46 74.3008C176.906 73.9578 173.14 75.0255 169.092 76.6719ZM64.2712 82.5193C62.6457 96.2518 55.7313 112.353 46.6905 123.458L40.7775 130.72L45.3328 135.138C47.838 137.567 50.0942 139.295 50.3446 138.978C52.6704 136.036 57.2175 127.186 60.008 120.177L63.4183 111.606L62.6498 120.764C62.2266 125.8 60.6881 133.034 59.2313 136.84L56.5828 143.757L59.4296 146.102C65.2367 150.885 66.6559 148.928 68.1449 134.079C68.5948 129.584 68.0632 121.102 66.8755 113.836C65.7495 106.957 65.3116 99.7696 65.3116 99.7696C65.3116 99.7696 67.3897 76.1066 66.2743 76.1066C65.5901 76.1066 64.6876 78.9921 64.2712 82.5193ZM69.1559 94.8612C75.4598 113.499 75.9485 116.038 75.9927 130.361C76.0182 138.466 75.5454 147.022 74.9442 149.374C73.8811 153.533 74.0043 153.695 79.3267 155.128C82.3394 155.94 85.4713 156.19 86.2881 155.685C87.9404 154.665 86.9615 137.436 84.8285 129.997C84.147 127.619 83.886 125.672 84.2502 125.672C85.8369 125.672 92.8866 143.714 93.8011 150.112C94.7946 157.07 94.8656 157.159 99.8158 157.569C105.922 158.077 106.121 156.811 101.57 146.513C97.8126 138.016 91.5703 128.385 85.4539 121.654C83.1107 119.075 79.5651 113.047 77.574 108.257C74.4381 100.714 67.2854 89.3313 69.1559 94.8612ZM88.2764 114.642C101.843 127.316 109.085 137.939 112.923 150.79C113.858 153.922 114.91 156.484 115.26 156.484C118.062 156.484 126.248 153.081 126.244 151.918C126.238 149.846 121.4 142.076 115.906 135.311C113.33 132.14 111.51 129.256 111.863 128.902C112.852 127.914 125.211 138.097 130.439 144.209L135.108 149.668L139.449 147.026C141.836 145.574 143.413 143.776 142.952 143.03C140.673 139.342 122.307 128.172 113.16 124.913C107.472 122.885 99.805 119.044 96.1228 116.377C79.8583 104.595 76.7974 103.918 88.2764 114.642ZM130.267 112.678C126.008 113.636 120.643 113.933 117.546 113.383C114.601 112.859 108.575 112.444 104.157 112.46C95.1654 112.491 96.4227 113.189 111.982 116.802C123.528 119.483 136.674 125.912 144.243 132.577C147.461 135.41 150.641 137.729 151.31 137.729C152.692 137.729 159.724 130.693 159.724 129.311C159.724 128.23 151.164 123.745 140.979 119.486L133.614 116.409L140.309 116.386C143.991 116.374 151.131 117.771 156.176 119.491L165.348 122.618L167.859 118.487C170.222 114.599 170.234 114.276 168.059 113.021C164.597 111.021 138.68 110.787 130.267 112.678Z" fill="#7E7E7E"/>
<path fill-rule="evenodd" clip-rule="evenodd" d="M96.5135 6.97722C98.6412 14.3987 105.197 24.2876 111.598 31.9462C115.078 36.1098 120.362 45.805 123.594 52.5165C130.87 67.6166 130.094 63.3429 127.927 55.7644C123.585 42.9925 121.034 28.5524 122.511 16.7892C123.163 11.5942 124.678 6.97722 124.678 6.97722C124.678 6.97722 124.208 5.65175 121.428 4.88013C112.391 2.36968 113.94 1.62292 114.861 14.6239C115.095 17.9206 115.39 21.8085 115.623 24.8213C115.858 27.8568 113.782 29.7502 112.312 27.085C-nan -nan -nan -nan 112.312 27.085L-nan -nanC-nan -nan -nan -nan -nan -nanL112.312 27.085C109.406 21.8176 107.666 18.0863 105.179 5.96278C104.665 3.45635 104.118 2.71484 99.7632 2.71484C94.5693 2.71484 95.3607 2.95435 96.5135 6.97722ZM79.1818 5.68855C77.4799 6.01408 76.3297 7.08984 75.9321 8.12804C74.9881 10.5862 78.8991 17.9916 86.2407 26.3455L88.5242 28.9435C89.2103 29.7242 88.288 30.8698 87.3802 30.3643C-nan -nan -nan -nan 87.3802 30.3643L-nan -nanC-nan -nan -nan -nan -nan -nanL87.3802 30.3643C84.8027 28.9296 78.5081 23.9151 73.4749 18.9545C64.3257 9.93884 64.6685 10.4398 60.7667 12.4586C58.6204 13.5692 57.517 14.9939 57.517 15.7065C57.517 18.864 77.654 29.6224 90.0141 34.1115C94.7769 35.8409 101.261 40.2909 105.792 43.4953C117.095 52.1586 119.18 52.1586 111.679 44.9379C97.5419 31.3287 90.547 21.8768 86.7644 9.21069C85.0425 3.44496 85.9945 4.38644 79.1818 5.68855ZM133.989 13.2194C131.953 16.5149 132.01 39.7396 133.989 48.1859C135.424 54.3053 135.316 58.7523 134.427 64.4255C133.763 68.6641 133.989 74.5678 133.989 78.4999C133.989 82.432 135.51 75.252 137.491 67.9433C140.177 56.0824 145.937 43.043 152.842 35.1942C155.798 31.8344 157.175 29.2824 157.175 28.6983C157.175 27.3399 151.971 21.1198 150.675 21.1198C149.085 21.1198 144.299 29.6877 140.926 38.4421L-nan -nanC-nan -nan -nan -nan -nan -nanL140.926 38.4421C-nan -nan -nan -nan 136.596 37.4672V37.4672L136.593 37.3594C137.082 29.7946 138.616 24.6876 142.009 16.7892C142.6 15.4148 141.4 14.0193 138.76 12.4586C134.116 9.71376 135.263 11.1564 133.989 13.2194ZM45.6015 24.3677C43.2556 26.2057 41.3354 28.4737 41.3354 29.4087C41.3354 31.39 51.7568 35.7711 61.85 39.5247L-nan -nanC-nan -nan -nan -nan -nan -nanL61.85 39.5247C-nan -nan -nan -nan 61.0993 42.5813V42.5813C59.8935 42.7953 58.3289 42.9237 56.4338 42.7727C51.5412 42.3828 46.5963 40.9863 42.3517 39.5247C38.1072 38.0632 35.0034 37.3594 34.7691 37.3594C33.8305 37.3594 30.8713 44.2882 31.5194 44.9379C31.9037 45.3211 35.4881 46.3397 41.2685 47.1032C49.7268 48.2205 54.6865 47.7795 65.0997 46.0206C72.219 44.8163 80.265 44.9379 80.265 44.9379C80.265 44.9379 102.109 47.0413 102.109 45.8222C102.109 45.0948 100.741 44.5 99.0695 44.5C93.8917 44.5 76.323 40.3131 68.3494 36.2768C64.1731 34.1629 57.6282 29.5003 54.2673 26.533L48.8512 22.2024L45.6015 24.3677ZM159.341 43.4953C153.76 50.5122 147.361 61.8564 144.176 72.0041C143.251 74.9512 141.551 79.1916 140.27 80.6652C136.697 84.7738 129.011 95.4969 129.011 96.9048C129.011 97.5934 131.336 95.0226 135.51 90.409C145.113 79.7925 151.637 71.5567 166.924 67.6735C170.721 66.709 175.864 65.1087 176.845 65.1087C177.61 64.668 174.107 55.3676 172.998 54.6817C171.902 54.0039 163.07 58.5301 153.925 65.5082C149.674 68.7527 148.751 68.8543 150.031 66.459C152.405 62.0222 160.424 52.5165 164.757 48.1859C169.134 44.7042 168.946 44.8781 166.924 40.6074C165.796 38.2269 165.343 37.3594 164.757 37.3594C164.171 37.3594 162.418 39.6265 159.341 43.4953ZM73.7656 52.5165C61.6452 56.5902 40.2165 58.5928 32.3152 55.9846C26.2724 53.9885 24.5366 54.2618 24.1027 61.3229C24.1027 61.3229 24.6335 63.0961 25.4052 63.9352C26.7984 65.45 26.754 65.5135 30.4361 65.5082C34.1183 65.5028 40.4678 65.0083 44.5182 64.4255C51.2158 63.4637 52.449 64.7931 49.9344 66.5908C45.9831 69.4147 30.8914 74.1693 26.1032 74.1693C22.259 74.1693 22.8535 79.5825 22.8535 79.5825C22.8535 79.5825 22.8709 83.9332 23.9367 83.9131C29.3529 86.0784 58.6003 63.3429 58.6003 63.3429C58.6003 63.3429 65.7705 59.0398 72.6823 55.7644C79.5941 52.4877 86.0412 49.6884 86.0412 49.2731C86.0412 48.1933 84.9393 48.7602 73.7656 52.5165ZM88.6147 60.9425C77.9685 68.1202 74.5702 81.8687 81.0602 91.5032C86.9463 100.243 99.4846 104.464 108.013 100.576L111.363 99.048L107.406 95.3506C102.548 90.8107 102.386 86.9686 106.862 82.4903C109.531 79.8204 111.068 79.2712 113.892 79.9785C115.88 80.4755 117.989 81.7388 118.578 82.7863C120.517 86.2305 122.194 84.7743 122.172 79.665C122.144 73.2509 117.407 64.8662 111.598 60.9505C105.355 56.7401 94.8517 56.7374 88.6147 60.9425ZM60.7667 72.0041C55.3506 77.4173 46.1063 86.1662 39.4542 89.3773C34.4987 91.7712 27.536 94.0659 27.536 94.0659C27.536 94.0659 23.4842 94.4433 25.02 100.153C25.8421 103.206 27.3645 105.566 28.2697 105.566C30.2032 105.566 36.4953 100.819 44.8719 94.0659L47.3093 92.3998C48.4148 91.6442 49.785 92.8937 49.1363 94.0659C-nan -nan -nan -nan 49.1363 94.0659L-nan -nanC-nan -nan -nan -nan -nan -nanL49.1363 94.0659C47.7089 96.6447 43.7429 103.158 39.102 107.731C30.7093 116.005 30.3839 115.17 32.6026 118.558C35.3971 122.824 34.8575 123.083 39.102 118.558C44.2638 113.055 50.375 101.888 54.1522 91.8502C56 86.9391 60.9261 77.7882 65.0997 71.5121C69.2746 65.2373 72.8254 60.404 72.5269 60.2271C72.2269 60.0503 66.1829 66.5908 60.7667 72.0041ZM95.157 71.5121C95.4676 74.2007 94.853 75.3086 92.6651 76.0038C88.774 77.239 85.4535 73.9167 86.688 70.0238C88.1019 65.5682 94.6026 66.7096 95.157 71.5121ZM169.09 78.4999C159.349 82.4665 151.87 86.9405 144.176 94.0726C140.709 97.2864 139.005 97.945 135.51 100.153C128.313 104.698 116.012 108.711 116.012 109.897C116.012 110.486 117.698 109.202 121.428 107.731C133.48 102.978 151.37 100.649 162.591 102.318C167.987 103.122 171.705 103.401 172.34 103.401C173.561 103.401 177.092 97.5931 177.092 94.5361C177.092 92.3164 165.511 92.7462 155.008 94.7396C151.106 95.479 147.736 95.0504 147.426 94.7396C146.361 93.6759 160.055 88.1388 169.09 86.0784C178.028 84.0409 177.756 83.9966 177.756 79.5825C177.756 77.127 177.647 76.9239 177.092 76.581C176.537 76.238 173.138 76.8535 169.09 78.4999ZM64.2319 83.0636C62.6064 96.7961 56.8087 112.866 47.7679 123.971L41.2685 131.549L45.7888 134.623C45.7888 134.623 49.684 138.363 49.9344 138.045C52.2602 135.104 57.1782 127.731 59.9686 120.722L-nan -nanC-nan -nan -nan -nan -nan -nanL59.9686 120.722C-nan -nan -nan -nan 62.6105 121.308V121.308C-nan -nan -nan -nan 62.6105 121.308L-nan -nanC-nan -nan -nan -nan -nan -nanL62.6105 121.308C62.1873 126.344 61.1403 133.157 59.6835 136.963L57.517 144.541C57.517 144.541 53.3848 140.84 59.192 145.624C64.9991 150.408 65.7772 149.473 67.2662 134.623C67.7161 130.128 67.4227 121.493 66.235 114.227C65.1089 107.348 65.3987 105.672 65.0997 100.153C64.5993 90.9177 67.3504 76.6509 66.235 76.6509C65.5508 76.6509 64.6483 79.5364 64.2319 83.0636ZM69.4326 95.3506C70.8319 97.9326 76.9711 116.218 77.0153 130.541C77.0407 138.646 76.5333 147.602 75.9321 149.954C74.8689 154.113 73.8593 153.934 79.1818 155.368C82.1945 156.179 84.8644 155.873 85.6812 155.368C87.3335 154.347 86.3439 137.658 84.2109 130.219C83.5293 127.841 83.8467 125.533 84.2109 125.533C85.7976 125.533 90.4175 138.387 94.3471 146.646C96.4759 151.12 95.3031 159.168 99.7632 157.533C103.66 156.104 105.398 158.087 100.846 147.789C97.0893 139.292 90.7144 129.62 84.5979 122.888C82.2547 120.31 79.0063 113.603 77.0153 108.814C73.8794 101.271 68.0334 92.7687 69.4326 95.3506ZM88.9309 115.31C96.5135 120.722 110.008 138.186 113.845 151.037C114.78 154.169 115.662 156.45 116.012 156.45C118.814 156.45 125.765 153.282 125.761 152.12C125.754 150.047 120.422 142.645 114.929 135.88C112.352 132.709 110.243 128.655 110.596 128.302C111.585 127.313 125.948 138.43 131.177 144.541L135.51 148.872L138.76 146.706C141.146 145.254 142.47 144.205 142.009 143.459C139.731 139.771 122.992 129.396 113.845 126.136C108.157 124.108 106.263 123.946 95.4303 116.921C84.5979 109.897 82.4315 109.897 88.9309 115.31ZM130.4 113.927C126.141 114.885 117.095 114.227 117.095 114.227C117.095 114.227 111.281 113.549 106.862 113.565C97.8711 113.596 96.7763 113.308 112.335 116.921C123.881 119.603 136.607 124.885 144.176 131.549C147.393 134.383 150.006 136.963 150.675 136.963C152.057 136.963 159.341 131.849 159.341 130.467C159.341 129.386 149.099 123.891 142.009 120.723C138.278 119.056 132.26 116.921 132.26 116.921L138.76 116.392C142.442 116.38 151.046 117.311 156.092 119.031L164.757 121.806L166.924 118.558C169.287 114.67 169.098 115.482 166.924 114.227C163.461 112.227 138.813 112.036 130.4 113.927Z" fill="#7E7E7E"/>
<path fill-rule="evenodd" clip-rule="evenodd" d="M87.6874 60.3852C77.054 68.2104 73.8621 80.3699 80.1329 90.9459C86.0177 100.871 99.6855 104.057 108.213 100.17L111.564 98.6412L107.607 94.9439C102.749 90.4039 102.587 86.5619 107.063 82.0836C109.732 79.4137 111.269 78.8644 114.093 79.5718C114.87 79.7659 115.973 80.3875 117.03 81.2021C118.679 82.4729 120.213 85.5327 120.213 85.5327C120.213 85.5327 120.344 85.7125 120.386 85.8457C120.452 86.051 120.326 86.3768 120.386 86.3974C120.901 86.5727 122.383 81.5932 122.373 79.2583C122.345 72.8442 117.608 64.4595 111.799 60.5438C105.556 56.3334 93.9244 56.1801 87.6874 60.3852ZM93.3025 68.2104C95.1639 69.9862 95.5823 71.8299 94.3858 73.6236C92.9778 75.7344 89.3027 75.7708 87.8864 73.6236C86.8934 72.1183 86.6678 70.4984 87.6874 69.0109C88.9393 67.1845 91.1605 66.1669 93.3025 68.2104Z" fill="url(#paint0_linear_81_157)"/>
<path fill-rule="evenodd" clip-rule="evenodd" d="M120.213 85.5327C120.213 85.5327 120.344 85.7125 120.386 85.8457C120.388 85.8512 120.39 85.8568 120.391 85.8624C120.403 85.9075 120.406 85.9574 120.405 86.0082C120.404 86.0826 120.393 86.1588 120.383 86.2238C120.37 86.3175 120.359 86.3882 120.386 86.3974C120.465 86.4242 120.567 86.3299 120.683 86.1423C120.719 86.0825 120.758 86.0133 120.797 85.9354C121.44 84.6662 122.381 81.1209 122.373 79.2583C122.345 72.8442 117.608 64.4595 111.799 60.5438C105.556 56.3334 93.9244 56.1801 87.6874 60.3852C77.054 68.2104 73.8621 80.3699 80.1329 90.9459C86.0177 100.871 99.6855 104.057 108.213 100.17L111.564 98.6412L107.607 94.9439C102.749 90.4039 102.587 86.5619 107.063 82.0836C109.732 79.4137 111.269 78.8644 114.093 79.5718C114.87 79.7659 115.973 80.3875 117.03 81.2021C118.679 82.4729 120.213 85.5327 120.213 85.5327ZM114.188 79.1902C115.043 79.4039 116.198 80.0643 117.27 80.8905C118.152 81.5702 118.978 82.7029 119.571 83.6322C119.871 84.1027 120.118 84.5322 120.291 84.8443C120.377 85.0004 120.445 85.1275 120.491 85.216C120.515 85.2602 120.532 85.2948 120.545 85.3186C120.547 85.3223 120.548 85.3259 120.55 85.3291C120.551 85.3305 120.552 85.3321 120.553 85.3336C120.555 85.3358 120.556 85.3382 120.558 85.3406C120.571 85.359 120.587 85.3834 120.605 85.4117C120.793 84.9631 121.002 84.3494 121.199 83.6608C121.63 82.1556 121.985 80.3704 121.98 79.26C121.967 76.1401 120.804 72.5067 118.912 69.1578C117.021 65.8109 114.423 62.7866 111.58 60.8701C108.541 58.8207 104.155 57.7406 99.7374 57.702C95.3227 57.6635 90.9452 58.6658 87.9136 60.707C77.4213 68.4323 74.3206 80.3726 80.4708 90.7452C83.3537 95.6074 88.1517 98.832 93.2938 100.361C98.4402 101.89 103.889 101.709 108.051 99.8118L110.866 98.5273L107.339 95.2314C104.881 92.9348 103.537 90.7483 103.442 88.5072C103.347 86.2595 104.514 84.0782 106.786 81.8053C108.13 80.4606 109.232 79.6038 110.388 79.1908C111.559 78.7722 112.736 78.8264 114.188 79.1901M95.3756 70.8305C95.5875 71.8544 95.361 72.8698 94.7125 73.8421C93.9197 75.0307 92.5109 75.6088 91.1406 75.6137C89.7696 75.6186 88.3563 75.0499 87.5585 73.8404C86.5057 72.2443 86.2275 70.4456 87.3634 68.7883C88.0262 67.8214 88.9692 67.0322 90.0725 66.7763C91.1991 66.5149 92.4213 66.8263 93.5736 67.9257C94.5391 68.8468 95.1663 69.8189 95.3756 70.8305ZM94.3858 73.6236C95.5823 71.8299 95.1639 69.9862 93.3025 68.2104C91.1605 66.1669 88.9393 67.1845 87.6874 69.0109C86.6678 70.4984 86.8934 72.1183 87.8864 73.6236C89.3027 75.7708 92.9778 75.7344 94.3858 73.6236Z" fill="url(#paint1_linear_81_157)"/>
<path fill-rule="evenodd" clip-rule="evenodd" d="M87.8869 61.5215C77.2535 69.3467 75.1167 80.1769 81.3875 90.7529C87.2723 100.678 98.8572 102.219 107.385 98.3314L108.468 97.2488L105.219 94.0008C100.361 89.4609 100.843 82.4501 105.641 79.259C108.676 77.2399 111.557 77.5564 114.968 78.8438C115.853 79.1779 116.368 79.3722 117.134 79.9265C119.159 81.3908 120.213 85.5334 120.213 85.5334C120.213 85.5334 120.344 85.7132 120.387 85.8464C120.452 86.0517 120.327 86.3775 120.387 86.398C120.902 86.5734 122.384 81.5939 122.374 79.259C122.346 72.8449 116.443 65.4372 110.635 61.5215C104.391 57.3111 94.1239 57.3165 87.8869 61.5215ZM93.3031 68.2111C95.1644 69.9869 95.5829 71.8305 94.3863 73.6243C92.9784 75.7351 89.3032 75.7715 87.8869 73.6243C86.894 72.119 86.6684 70.4991 87.688 69.0116C88.9398 67.1852 91.1611 66.1676 93.3031 68.2111Z" fill="#7E7E7E"/>
<path d="M8.22677 197.487C5.3436 197.493 3.20711 196.68 1.8161 195.049C1.32112 194.464 0.918872 193.687 0.608154 192.717C0.29864 191.746 0.143281 190.567 0.139668 189.179C0.137259 187.792 0.361265 186.547 0.814095 185.444C1.26572 184.34 1.88475 183.488 2.66997 182.884C4.19346 181.756 6.03488 181.19 8.19305 181.185C8.80967 181.185 9.41063 181.233 9.99714 181.332C10.5824 181.431 11.022 181.534 11.3159 181.642L11.7326 181.803C12.1541 181.965 12.3251 182.45 12.1457 182.794C11.9903 183.092 11.5965 183.241 11.2388 183.1C10.3958 182.824 9.74182 181.59 8.19425 181.417C6.90923 181.274 5.89157 181.821 5.46764 182.037C4.97507 182.288 4.51983 182.617 4.10554 183.022C3.27455 183.809 2.69165 184.967 2.35564 186.494C2.15693 187.357 2.05938 188.413 2.06179 189.662C2.06419 190.911 2.24364 192.064 2.60133 193.119C2.95781 194.174 3.27575 194.945 3.7322 195.452C4.18743 195.96 4.82814 196.374 5.47607 196.673C6.124 196.971 6.64066 197.145 7.02605 197.189C7.41144 197.235 7.87752 197.257 8.42549 197.256C8.97226 197.256 9.59249 197.199 10.2862 197.09C10.9799 196.98 11.5038 196.879 11.8578 196.786L12.389 196.623L12.4588 196.855C11.2882 197.273 9.87791 197.485 8.22918 197.488L8.22677 197.487Z" fill="#7E7E7E"/>
<path d="M17.2354 181.419V181.185H21.4035V181.419H20.2561L20.2561 197.343H21.4035V197.577H17.2354V197.343H18.3125L18.3125 181.419H17.2354Z" fill="#7E7E7E"/>
<path d="M24.9253 181.372C26.7362 181.248 28.3363 181.185 29.7257 181.185C33.5816 181.185 35.5096 182.473 35.5096 185.049C35.5096 186.142 35.2442 187.117 34.7134 187.976C34.1826 188.834 33.2694 189.404 31.9737 189.685L36.657 197.577H34.4793L29.8896 189.826H26.8689V197.577H24.9253L24.9253 181.372ZM29.7257 181.419C28.8202 181.419 27.868 181.474 26.8689 181.583L26.8689 189.592H30.3345C32.5357 189.498 33.6363 187.999 33.6363 185.096C33.6363 183.909 33.3084 183.004 32.6528 182.379C31.9971 181.739 31.0214 181.419 29.7257 181.419Z" fill="#7E7E7E"/>
<path d="M50.1876 181.185H50.9101V190.552C50.9101 193.003 50.4261 194.806 49.4582 195.961C48.4904 197.101 47.2259 197.67 45.6648 197.67C44.6813 197.67 43.8461 197.584 43.1592 197.413C42.4723 197.225 41.8244 196.89 41.2156 196.406C39.9667 195.438 39.3423 193.487 39.3423 190.552V181.185H41.2859V190.528C41.2859 193.369 41.7152 195.266 42.5738 196.219C43.0109 196.687 43.4636 197.007 43.9319 197.179C44.4159 197.35 44.9935 197.436 45.6648 197.436C47.1634 197.436 47.9396 196.89 48.8295 195.797C49.7349 194.689 50.1876 192.932 50.1876 190.528V181.185Z" fill="#7E7E7E"/>
<path d="M54.4316 181.372C56.2425 181.248 57.8427 181.185 59.232 181.185C63.088 181.185 65.0159 182.473 65.0159 185.049C65.0159 186.142 64.7505 187.117 64.2198 187.976C63.689 188.834 62.7757 189.404 61.48 189.685L66.1633 197.577H63.9856L59.396 189.826H56.3752L56.3752 197.577H54.4316L54.4316 181.372ZM59.232 181.419C58.3266 181.419 57.3743 181.474 56.3752 181.583V189.592H59.8409C62.042 189.498 63.1426 187.999 63.1426 185.096C63.1426 183.909 62.8148 183.004 62.1591 182.379C61.5034 181.739 60.5278 181.419 59.232 181.419Z" fill="#7E7E7E"/>
<path d="M76.8095 197.694C73.8902 197.694 72.0107 197.335 70.3231 195.212C69.6767 194.398 69.4176 193.83 69.1054 192.847C68.7932 191.863 68.4009 190.531 68.4324 189.128C68.4658 187.642 68.8635 186.602 69.3162 185.494C69.7845 184.37 70.4167 183.503 71.2129 182.894C72.7584 181.755 74.6239 181.185 76.8095 181.185C77.512 181.185 78.1988 181.24 78.8701 181.349C79.5414 181.443 79.7638 181.494 80.0917 181.603C80.4195 181.712 80.7187 182.021 80.7187 182.021C80.7187 182.021 81.1367 182.513 80.6463 182.991C80.2505 183.378 79.4646 182.857 79.4646 182.857C78.8376 182.439 77.9753 181.596 76.8095 181.419C75.0919 181.158 73.7731 181.958 72.6647 183.035C71.8217 183.831 71.2285 185.002 70.8851 186.547C70.6821 187.422 70.5807 188.491 70.5807 189.756C70.5807 191.02 70.7602 192.191 71.1192 193.268C71.4783 194.33 71.8842 195.118 72.3369 195.633C72.8052 196.148 73.3672 196.562 74.0229 196.874C74.6786 197.171 75.2015 197.343 75.5918 197.389C75.9821 197.436 76.4426 197.46 76.9734 197.46C77.5198 197.46 78.2457 197.397 79.1511 197.272V192.448H76.3177V192.214H82.1016V192.448H81.0947V197.062C79.9083 197.483 78.4799 197.694 76.8095 197.694Z" fill="#7E7E7E"/>
<path d="M85.2065 181.419V181.185H89.3747V181.419H88.2273V197.343H89.3747V197.577H85.2065V197.343H86.2837V181.419H85.2065Z" fill="#7E7E7E"/>
<path d="M93.595 197.694H92.896L99.4795 181.302L99.7371 181.185L106.056 197.694H104.066L102.239 192.542H95.8196L93.595 197.694ZM99.1716 183.831L95.9133 192.308H102.169L99.1716 183.831Z" fill="#7E7E7E"/>
<path d="M125.515 197.694C122.596 197.694 120.434 196.866 119.029 195.212C118.529 194.618 118.123 193.83 117.811 192.847C117.499 191.863 117.343 190.669 117.343 189.264C117.343 187.859 117.569 186.602 118.022 185.494C118.49 184.37 119.122 183.503 119.919 182.894C121.464 181.755 123.33 181.185 125.515 181.185C126.14 181.185 126.748 181.24 127.342 181.349C127.935 181.443 128.38 181.544 128.676 181.653L129.098 181.817L129.028 182.051C127.966 181.63 126.795 181.419 125.515 181.419C123.86 181.419 122.479 181.958 121.37 183.035C120.527 183.831 119.934 185.002 119.591 186.547C119.388 187.422 119.286 188.491 119.286 189.756C119.286 191.02 119.466 192.191 119.825 193.268C120.184 194.33 120.59 195.118 121.043 195.633C121.511 196.148 122.073 196.562 122.729 196.874C123.384 197.171 123.907 197.343 124.297 197.389C124.688 197.436 125.156 197.46 125.702 197.46C126.264 197.46 126.897 197.405 127.599 197.296C128.302 197.186 128.832 197.085 129.192 196.991L129.73 196.827L129.8 197.062C128.614 197.483 127.186 197.694 125.515 197.694Z" fill="#7E7E7E"/>
<path d="M142.224 181.185V182.255H134.847V188.444H141.685V189.096H134.847V196.506H142.739V197.577H133.322V181.185H142.224Z" fill="#7E7E7E"/>
<path d="M147.401 197.577H146.679V181.185H147.475L156.798 196.336V181.185H157.521V197.577H155.811L147.401 183.995V197.577Z" fill="#7E7E7E"/>
<path d="M166.619 197.577H164.675V181.837H160.624V181.185H170.693V181.837H166.619V197.577Z" fill="#7E7E7E"/>
<path d="M183.117 181.185V182.255H175.74V188.444H182.578V189.096H175.74V196.506H183.632V197.577H174.215V181.185H183.117Z" fill="#7E7E7E"/>
<path d="M188.408 181.372C190.219 181.248 191.819 181.185 193.208 181.185C197.064 181.185 198.992 182.473 198.992 185.049C198.992 186.142 198.727 187.117 198.196 187.976C197.665 188.834 196.752 189.404 195.456 189.685L200.139 197.577H197.962L193.372 189.826H190.351V197.577H188.408V181.372ZM193.208 181.419C192.303 181.419 191.35 181.474 190.351 181.583V189.592H193.817C196.018 189.498 197.119 187.999 197.119 185.096C197.119 183.909 196.791 183.004 196.135 182.379C195.479 181.739 194.504 181.419 193.208 181.419Z" fill="#7E7E7E"/>
<defs>
<linearGradient id="paint0_linear_81_157" x1="77.0729" y1="63.7191" x2="121.89" y2="64.4728" gradientUnits="userSpaceOnUse">
<stop stop-color="#A47928"/>
<stop offset="0.200181" stop-color="#E5CB7B"/>
<stop offset="0.652656" stop-color="#B79040"/>
<stop offset="0.804261" stop-color="#F4DD8D"/>
</linearGradient>
<linearGradient id="paint1_linear_81_157" x1="77.0729" y1="63.7191" x2="121.89" y2="64.4728" gradientUnits="userSpaceOnUse">
<stop stop-color="#A47928"/>
<stop offset="0.200181" stop-color="#E5CB7B"/>
<stop offset="0.652656" stop-color="#B79040"/>
<stop offset="0.804261" stop-color="#F4DD8D"/>
</linearGradient>
</defs>
</svg>
