<svg width="201" height="199" viewBox="0 0 201 199" fill="none" xmlns="http://www.w3.org/2000/svg">
<path fill-rule="evenodd" clip-rule="evenodd" d="M103.026 72.4922L103.027 72.4901L103.041 72.4695C103.058 72.4439 103.087 72.3999 103.129 72.339C103.211 72.2172 103.343 72.0279 103.522 71.7816C103.88 71.2887 104.427 70.5706 105.154 69.7118C106.612 67.9886 108.768 65.7305 111.549 63.5903C117.111 59.3092 124.963 55.6418 134.757 57.3207C149.506 59.8491 155.791 72.8474 157.038 79.0811L157.06 79.1879L157.088 79.2931C157.822 82.0185 158.287 87.7198 156.262 93.6946C155.895 94.7785 155.447 95.869 154.904 96.9516L163.553 92.2223C164.847 86.306 164.381 80.9128 163.529 77.6728C161.952 69.988 154.347 53.9406 135.879 50.7746C123.669 48.6814 113.978 53.3396 107.498 58.3271C104.26 60.8188 101.772 63.428 100.089 65.4156C99.1244 64.3693 97.9277 63.1457 96.5324 61.862C92.6507 58.2909 87.0096 54.0478 80.371 52.0562C71.1995 49.3048 62.1209 50.0829 54.401 54.1193C46.6882 58.1521 40.5685 65.311 37.0497 74.9078C34.0123 83.1917 35.8726 91.4049 39.0832 98.018C42.2619 104.565 46.9342 109.926 50.3749 112.959C57.3177 120.001 67.9777 130.779 77.2131 140.049C81.8487 144.702 86.1301 148.98 89.4038 152.215C92.5769 155.352 95.0069 157.715 95.7779 158.332C97.5721 159.768 99.5468 160.348 101.456 160.024C103.088 159.747 104.326 158.863 105.084 157.961L139.473 123.572L143.583 119.462L128.992 124.66L100.27 153.383C100.183 153.334 100.069 153.259 99.9268 153.146L99.9237 153.143C99.9182 153.139 99.9056 153.128 99.8848 153.11L99.8551 153.085C99.8437 153.075 99.8312 153.064 99.8177 153.052C99.8014 153.038 99.7836 153.022 99.7641 153.005C99.6619 152.913 99.5303 152.793 99.3674 152.641C99.0416 152.338 98.6177 151.935 98.1013 151.437C97.0698 150.443 95.7013 149.102 94.0726 147.492C90.8171 144.274 86.5498 140.01 81.9182 135.361C72.6562 126.065 61.9561 115.246 55.0207 108.211L54.9348 108.124L54.8427 108.044C51.9486 105.511 47.8167 100.8 45.0579 95.1174C42.3017 89.4403 41.0895 83.1828 43.2853 77.1942C46.3081 68.9504 51.4057 63.1801 57.4784 60.0049C63.544 56.8334 70.8192 56.1247 78.4626 58.4177C83.7177 59.9942 88.4837 63.482 92.0358 66.7498C93.7876 68.3615 95.1899 69.8692 96.1498 70.9687C96.6288 71.5173 96.995 71.9613 97.2368 72.2619C97.3576 72.4122 97.4472 72.5264 97.504 72.5996C97.5324 72.6362 97.5526 72.6626 97.5644 72.6781L97.5745 72.6914L97.5754 72.6925L97.5758 72.6931L97.576 72.6934L97.5768 72.6944L100.446 76.5199L103.024 72.4957L103.024 72.4955L103.025 72.4941L103.025 72.4938L103.026 72.4922Z" fill="#7E7E7E"/>
<path fill-rule="evenodd" clip-rule="evenodd" d="M99.0254 0.805356C97.3509 1.6432 97.2811 2.11676 97.1765 13.7737C97.134 18.81 97.0656 21.8059 96.9477 23.3786C93.3513 23.4928 89.8123 23.8062 86.3758 24.3223C78.7406 25.4866 70.9144 27.6098 63.0809 30.5941C62.25 29.1284 60.5683 26.0103 58.6986 22.4799C56.152 17.7079 53.7101 13.5551 53.2566 13.2637C51.024 11.7337 48.1983 13.2272 48.1634 15.9229C48.1285 17.0886 48.9658 18.91 52.6984 25.8677L56.6629 33.2309C47.0157 37.482 37.4337 43.0019 28.2612 49.6075L23.1511 44.3002C19.5928 40.621 16.2439 37.4153 15.6509 37.1967C14.395 36.6867 13.1392 36.9782 12.0577 37.9981C11.4996 38.581 11.2903 39.2003 11.2903 40.4388V42.0781L17.6393 48.7808L22.5468 53.9054C17.3842 57.9576 12.3807 62.3554 7.60141 67.0642C0.444562 74.0769 0.493581 75.6125 7.99357 82.7277C19.7355 93.8693 31.868 102.986 44.153 109.93L32.1854 90.2238C27.6183 86.8603 23.1351 83.2316 18.8269 79.4004L13.7779 74.8959L14.9053 73.6162C16.7681 71.4663 25.4935 64.1465 31.3759 59.7443C58.6308 39.3204 85.7386 30.516 111.278 33.7921C133.729 36.7098 158.042 48.8413 180.493 68.3439C181.047 68.826 181.559 69.2698 182.031 69.6794C185.57 72.7463 186.896 73.8952 186.781 74.8759C186.713 75.4633 186.127 75.9904 185.191 76.8332C184.996 77.0087 184.786 77.1979 184.562 77.4041C168.974 91.532 153.189 101.872 137.356 108.424C111.866 118.917 88.5817 118.815 62.8464 108.014C60.9654 107.229 59.0636 106.372 57.1478 105.449L73.2232 122.187C74.3398 122.498 75.4561 122.79 76.5719 123.064C76.7048 123.097 76.8367 123.129 76.9678 123.162C77.0959 123.193 77.2232 123.225 77.3498 123.255C86.1161 125.399 90.9773 125.929 100.837 125.879C111.033 125.879 117.405 125.06 126.474 122.603C148.974 116.614 172.699 102.384 193.336 82.5229C200.493 75.6637 200.64 73.9233 194.317 67.7296C189.297 62.7923 184.038 58.1763 178.612 53.9291L183.481 48.8172L189.9 42.0781C189.9 42.0781 190.196 41.4167 190.256 40.9639C190.421 39.7363 189.691 38.581 189.133 37.9981C188.051 36.9782 186.795 36.6867 185.54 37.1967C184.946 37.4153 181.563 40.6574 178.004 44.373L172.905 49.6412C163.749 43.045 154.207 37.5042 144.612 33.2339C145.413 31.6433 146.798 28.9915 148.387 26.0134C152.19 18.9464 153.062 17.0886 153.027 15.9229C152.992 13.2272 150.201 11.6973 147.969 13.2272C147.48 13.5551 145.178 17.4893 142.282 22.8442C140.568 26.071 139.044 28.9323 138.171 30.5616C136.263 29.8284 134.357 29.1472 132.454 28.5197C123.344 25.5156 113.63 23.7932 104.106 23.4111L104.014 13.7737C103.909 1.97104 103.839 1.6432 102.095 0.805356C101.084 0.331794 99.9673 0.331794 99.0254 0.805356Z" fill="#858A8D"/>
<path d="M5.09569 196.522C5.09569 197.145 4.86874 197.685 4.41484 198.141C3.97606 198.581 3.4465 198.802 2.82617 198.802C2.20583 198.802 1.66871 198.581 1.2148 198.141C0.776028 197.685 0.556641 197.145 0.556641 196.522V169.17C0.556641 168.547 0.776028 168.015 1.2148 167.574C1.66871 167.118 2.20583 166.89 2.82617 166.89C3.4465 166.89 3.98363 167.11 4.43753 167.551C4.61909 167.749 4.76283 167.954 4.86874 168.167L14.1738 186.858V169.17C14.1738 168.547 14.3932 168.015 14.832 167.574C15.2859 167.118 15.823 166.89 16.4433 166.89C17.0637 166.89 17.5932 167.118 18.032 167.574C18.4859 168.015 18.7129 168.547 18.7129 169.17V196.522C18.7129 197.145 18.4859 197.685 18.032 198.141C17.5932 198.581 17.0637 198.802 16.4433 198.802C15.823 198.802 15.2934 198.574 14.8547 198.118C14.658 197.936 14.5067 197.738 14.4008 197.525L5.09569 178.834V196.522Z" fill="#858A8D"/>
<path d="M23.2519 185.125C23.2519 182.603 24.137 180.453 25.9073 178.675C27.6775 176.897 29.8184 176.008 32.33 176.008C34.8416 176.008 36.9825 176.897 38.7528 178.675C40.523 180.453 41.4081 182.603 41.4081 185.125V189.684C41.4081 192.207 40.523 194.357 38.7528 196.135C36.9825 197.913 34.8416 198.802 32.33 198.802C29.8184 198.802 27.6775 197.913 25.9073 196.135C24.137 194.357 23.2519 192.207 23.2519 189.684V185.125ZM36.8691 185.125C36.8691 183.864 36.4227 182.793 35.53 181.911C34.6525 181.015 33.5858 180.567 32.33 180.567C31.0742 180.567 30 181.015 29.1073 181.911C28.2297 182.793 27.791 183.864 27.791 185.125V189.684C27.791 190.945 28.2297 192.024 29.1073 192.921C30 193.802 31.0742 194.243 32.33 194.243C33.5858 194.243 34.6525 193.802 35.53 192.921C36.4227 192.024 36.8691 190.945 36.8691 189.684V185.125Z" fill="#858A8D"/>
<path d="M60.0182 177.831C60.1695 177.223 60.51 176.752 61.0395 176.418C61.5842 176.084 62.1592 175.985 62.7644 176.122C63.3544 176.274 63.8159 176.623 64.1488 177.17C64.4816 177.702 64.58 178.272 64.4438 178.88L58.2026 197.001C57.9 197.609 57.5142 198.08 57.0452 198.414C56.5913 198.749 56.0617 198.87 55.4565 198.779H54.5941C53.9889 198.87 53.4517 198.749 52.9827 198.414C52.5288 198.08 52.1505 197.609 51.8479 197.001L45.6067 178.857C45.4706 178.249 45.5689 177.679 45.9018 177.147C46.2346 176.6 46.6961 176.251 47.2862 176.099C47.8914 175.962 48.4588 176.061 48.9883 176.395C49.533 176.73 49.881 177.201 50.0323 177.808L55.0253 191.941L60.0182 177.831Z" fill="#858A8D"/>
<path d="M73.1815 189.684C73.1815 190.945 73.6203 192.024 74.4978 192.921C75.3905 193.802 76.4647 194.243 77.7206 194.243C78.9764 194.243 80.043 193.802 80.9206 192.921C81.8133 192.024 82.2596 190.945 82.2596 189.684V185.125C82.2596 183.864 81.8133 182.793 80.9206 181.911C80.043 181.015 78.9764 180.567 77.7206 180.567C76.4647 180.567 75.3905 181.015 74.4978 181.911C73.6203 182.793 73.1815 183.864 73.1815 185.125V189.684ZM82.4639 197.48C81.0719 198.361 79.4908 198.802 77.7206 198.802C75.2089 198.802 73.068 197.913 71.2978 196.135C69.5276 194.357 68.6424 192.207 68.6424 189.684V185.125C68.6424 182.603 69.5276 180.453 71.2978 178.675C73.068 176.897 75.2089 176.008 77.7206 176.008C79.4908 176.008 81.0719 176.448 82.4639 177.33C82.5698 177.102 82.7286 176.882 82.9405 176.669C83.3792 176.228 83.9088 176.008 84.5291 176.008C85.1495 176.008 85.679 176.236 86.1178 176.692C86.5717 177.132 86.7987 177.664 86.7987 178.287V196.522C86.7987 197.145 86.5717 197.685 86.1178 198.141C85.679 198.581 85.1495 198.802 84.5291 198.802C83.9088 198.802 83.3792 198.574 82.9405 198.118C82.7286 197.92 82.5698 197.708 82.4639 197.48Z" fill="#858A8D"/>
<path d="M105.477 168.691C105.628 168.083 105.969 167.612 106.498 167.278C107.043 166.943 107.618 166.845 108.223 166.981C108.813 167.133 109.275 167.483 109.607 168.03C109.94 168.562 110.039 169.132 109.902 169.739L103.593 197.001C103.442 197.609 103.094 198.08 102.549 198.414C102.02 198.749 101.452 198.87 100.847 198.779H99.9846C99.3794 198.87 98.8044 198.749 98.2598 198.414C97.7302 198.08 97.3898 197.609 97.2385 197.001L90.9292 169.739C90.793 169.132 90.8914 168.562 91.2242 168.03C91.5571 167.483 92.0186 167.133 92.6086 166.981C93.2139 166.845 93.7812 166.943 94.3108 167.278C94.8555 167.612 95.2035 168.083 95.3548 168.691L100.416 190.573L105.477 168.691Z" fill="#858A8D"/>
<path d="M129.92 194.243C130.54 194.243 131.07 194.471 131.508 194.927C131.962 195.368 132.189 195.899 132.189 196.522C132.189 197.145 131.962 197.685 131.508 198.141C131.07 198.581 130.54 198.802 129.92 198.802H116.302C115.682 198.802 115.145 198.581 114.691 198.141C114.252 197.685 114.033 197.145 114.033 196.522C114.033 195.899 114.252 195.368 114.691 194.927C115.145 194.471 115.682 194.243 116.302 194.243H120.842V180.567H116.302C115.682 180.567 115.145 180.346 114.691 179.906C114.252 179.45 114.033 178.91 114.033 178.287C114.033 177.664 114.252 177.132 114.691 176.692C115.145 176.236 115.682 176.008 116.302 176.008H123.111C123.731 176.008 124.261 176.236 124.7 176.692C125.154 177.132 125.381 177.664 125.381 178.287V194.243H129.92ZM124.7 167.574C125.154 168.015 125.381 168.547 125.381 169.17C125.381 169.793 125.154 170.332 124.7 170.788C124.261 171.229 123.731 171.449 123.111 171.449C122.491 171.449 121.954 171.229 121.5 170.788C121.061 170.332 120.842 169.793 120.842 169.17C120.842 168.547 121.061 168.015 121.5 167.574C121.954 167.118 122.491 166.89 123.111 166.89C123.731 166.89 124.261 167.118 124.7 167.574Z" fill="#858A8D"/>
<path d="M154.884 191.964C154.884 193.726 153.999 195.307 152.229 196.705C150.459 198.103 147.94 198.802 144.672 198.802C141.706 198.802 139.338 197.913 137.568 196.135L137.591 196.112C137.576 196.112 137.56 196.097 137.545 196.067C137.091 195.626 136.864 195.094 136.864 194.471C136.864 193.848 137.084 193.316 137.523 192.875C137.976 192.419 138.514 192.192 139.134 192.192C139.754 192.192 140.291 192.412 140.745 192.853C140.745 192.868 140.753 192.883 140.768 192.898C141.661 193.795 142.962 194.243 144.672 194.243C146.684 194.243 148.129 193.992 149.006 193.491C149.899 192.974 150.345 192.465 150.345 191.964C150.345 191.462 150.013 190.961 149.347 190.459C148.696 189.943 147.198 189.684 144.853 189.684C142.523 189.684 140.586 188.985 139.043 187.587C137.5 186.189 136.728 184.609 136.728 182.846C136.728 181.083 137.613 179.503 139.384 178.105C141.154 176.707 143.673 176.008 146.941 176.008C149.907 176.008 152.274 176.897 154.045 178.675L154.022 178.697C154.037 178.697 154.06 178.705 154.09 178.72C154.529 179.176 154.748 179.716 154.748 180.339C154.748 180.962 154.521 181.501 154.067 181.957C153.629 182.398 153.099 182.618 152.479 182.618C151.858 182.618 151.329 182.39 150.89 181.934C150.875 181.934 150.86 181.927 150.845 181.911C149.952 181.015 148.651 180.567 146.941 180.567C144.929 180.567 143.476 180.825 142.584 181.342C141.706 181.843 141.267 182.345 141.267 182.846C141.267 183.347 141.593 183.857 142.243 184.373C142.909 184.875 144.407 185.125 146.737 185.125C149.082 185.125 151.026 185.824 152.57 187.222C154.113 188.62 154.884 190.201 154.884 191.964Z" fill="#858A8D"/>
<path d="M163.963 189.684C163.963 190.945 164.401 192.024 165.279 192.921C166.172 193.802 167.246 194.243 168.502 194.243C169.757 194.243 170.824 193.802 171.702 192.921C172.594 192.024 173.041 190.945 173.041 189.684V185.125C173.041 183.864 172.594 182.793 171.702 181.911C170.824 181.015 169.757 180.567 168.502 180.567C167.246 180.567 166.172 181.015 165.279 181.911C164.401 182.793 163.963 183.864 163.963 185.125V189.684ZM173.245 197.48C171.853 198.361 170.272 198.802 168.502 198.802C165.99 198.802 163.849 197.913 162.079 196.135C160.309 194.357 159.424 192.207 159.424 189.684V185.125C159.424 182.603 160.309 180.453 162.079 178.675C163.849 176.897 165.99 176.008 168.502 176.008C170.272 176.008 171.853 176.448 173.245 177.33C173.351 177.102 173.51 176.882 173.722 176.669C174.16 176.228 174.69 176.008 175.31 176.008C175.931 176.008 176.46 176.236 176.899 176.692C177.353 177.132 177.58 177.664 177.58 178.287V196.522C177.58 197.145 177.353 197.685 176.899 198.141C176.46 198.581 175.931 198.802 175.31 198.802C174.69 198.802 174.16 198.574 173.722 198.118C173.51 197.92 173.351 197.708 173.245 197.48ZM163.963 172.11C163.342 172.11 162.805 171.89 162.351 171.449C161.912 170.993 161.693 170.454 161.693 169.831C161.693 169.208 161.912 168.676 162.351 168.235C162.805 167.779 163.448 167.399 164.28 167.095C165.128 166.791 166.459 167.019 168.275 167.779C169.818 168.402 170.839 168.524 171.339 168.144C171.853 167.749 172.42 167.551 173.041 167.551C173.661 167.551 174.191 167.779 174.629 168.235C175.083 168.676 175.31 169.208 175.31 169.831C175.31 170.454 175.083 170.993 174.629 171.449C174.191 171.89 173.51 172.3 172.587 172.68C171.679 173.06 170.317 172.87 168.502 172.11C166.807 171.335 165.778 171.145 165.415 171.54C165.067 171.92 164.583 172.11 163.963 172.11Z" fill="#858A8D"/>
<path d="M182.119 185.125C182.119 182.603 183.004 180.453 184.774 178.675C186.544 176.897 188.685 176.008 191.197 176.008C193.708 176.008 195.849 176.897 197.62 178.675C199.39 180.453 200.275 182.603 200.275 185.125V189.684C200.275 192.207 199.39 194.357 197.62 196.135C195.849 197.913 193.708 198.802 191.197 198.802C188.685 198.802 186.544 197.913 184.774 196.135C183.004 194.357 182.119 192.207 182.119 189.684V185.125ZM195.736 185.125C195.736 183.864 195.29 182.793 194.397 181.911C193.519 181.015 192.453 180.567 191.197 180.567C189.941 180.567 188.867 181.015 187.974 181.911C187.097 182.793 186.658 183.864 186.658 185.125V189.684C186.658 190.945 187.097 192.024 187.974 192.921C188.867 193.802 189.941 194.243 191.197 194.243C192.453 194.243 193.519 193.802 194.397 192.921C195.29 192.024 195.736 190.945 195.736 189.684V185.125Z" fill="#858A8D"/>
<path d="M105.835 168.777C105.987 168.169 106.327 167.698 106.857 167.364C107.401 167.03 107.976 166.931 108.582 167.068C109.172 167.22 109.633 167.569 109.966 168.116C110.299 168.648 110.397 169.218 110.261 169.826L103.952 197.088C103.8 197.695 103.452 198.166 102.908 198.501C102.378 198.835 101.811 198.957 101.206 198.865H100.343C99.738 198.957 99.1631 198.835 98.6184 198.501C98.0888 198.166 97.7484 197.695 97.5971 197.088L91.2878 169.826C91.1516 169.218 91.25 168.648 91.5829 168.116C91.9157 167.569 92.3772 167.22 92.9673 167.068C93.5725 166.931 94.1399 167.03 94.6694 167.364C95.2141 167.698 95.5621 168.169 95.7134 168.777L100.774 190.66L105.835 168.777Z" fill="#7E7E7E"/>
<path d="M130.278 194.329C130.899 194.329 131.428 194.557 131.867 195.013C132.321 195.454 132.548 195.986 132.548 196.609C132.548 197.232 132.321 197.771 131.867 198.227C131.428 198.668 130.899 198.888 130.278 198.888H116.661C116.041 198.888 115.504 198.668 115.05 198.227C114.611 197.771 114.392 197.232 114.392 196.609C114.392 195.986 114.611 195.454 115.05 195.013C115.504 194.557 116.041 194.329 116.661 194.329H121.2V180.653H116.661C116.041 180.653 115.504 180.433 115.05 179.992C114.611 179.536 114.392 178.997 114.392 178.374C114.392 177.751 114.611 177.219 115.05 176.778C115.504 176.322 116.041 176.094 116.661 176.094H123.47C124.09 176.094 124.62 176.322 125.058 176.778C125.512 177.219 125.739 177.751 125.739 178.374V194.329H130.278ZM125.058 167.66C125.512 168.101 125.739 168.633 125.739 169.256C125.739 169.879 125.512 170.418 125.058 170.874C124.62 171.315 124.09 171.535 123.47 171.535C122.849 171.535 122.312 171.315 121.858 170.874C121.42 170.418 121.2 169.879 121.2 169.256C121.2 168.633 121.42 168.101 121.858 167.66C122.312 167.205 122.849 166.977 123.47 166.977C124.09 166.977 124.62 167.205 125.058 167.66Z" fill="#7E7E7E"/>
<path d="M155.243 192.05C155.243 193.813 154.358 195.393 152.588 196.791C150.818 198.189 148.298 198.888 145.03 198.888C142.065 198.888 139.697 197.999 137.927 196.221L137.949 196.199C137.934 196.199 137.919 196.183 137.904 196.153C137.45 195.712 137.223 195.18 137.223 194.557C137.223 193.934 137.442 193.402 137.881 192.962C138.335 192.506 138.872 192.278 139.493 192.278C140.113 192.278 140.65 192.498 141.104 192.939C141.104 192.954 141.111 192.969 141.127 192.985C142.019 193.881 143.321 194.329 145.03 194.329C147.043 194.329 148.487 194.079 149.365 193.577C150.258 193.061 150.704 192.551 150.704 192.05C150.704 191.549 150.371 191.047 149.705 190.546C149.055 190.029 147.557 189.771 145.212 189.771C142.882 189.771 140.945 189.072 139.402 187.674C137.859 186.276 137.087 184.695 137.087 182.932C137.087 181.17 137.972 179.589 139.742 178.191C141.512 176.793 144.032 176.094 147.3 176.094C150.265 176.094 152.633 176.983 154.403 178.761L154.381 178.784C154.396 178.784 154.418 178.791 154.449 178.807C154.888 179.263 155.107 179.802 155.107 180.425C155.107 181.048 154.88 181.588 154.426 182.043C153.987 182.484 153.458 182.704 152.837 182.704C152.217 182.704 151.687 182.477 151.249 182.021C151.234 182.021 151.218 182.013 151.203 181.998C150.311 181.101 149.009 180.653 147.3 180.653C145.287 180.653 143.835 180.911 142.942 181.428C142.065 181.929 141.626 182.431 141.626 182.932C141.626 183.434 141.951 183.943 142.602 184.46C143.268 184.961 144.765 185.212 147.095 185.212C149.441 185.212 151.385 185.911 152.928 187.309C154.471 188.707 155.243 190.287 155.243 192.05Z" fill="#7E7E7E"/>
<path d="M164.321 189.771C164.321 191.032 164.76 192.111 165.638 193.007C166.53 193.889 167.604 194.329 168.86 194.329C170.116 194.329 171.183 193.889 172.06 193.007C172.953 192.111 173.399 191.032 173.399 189.771V185.212C173.399 183.951 172.953 182.879 172.06 181.998C171.183 181.101 170.116 180.653 168.86 180.653C167.604 180.653 166.53 181.101 165.638 181.998C164.76 182.879 164.321 183.951 164.321 185.212V189.771ZM173.604 197.566C172.212 198.448 170.63 198.888 168.86 198.888C166.349 198.888 164.208 197.999 162.437 196.221C160.667 194.443 159.782 192.293 159.782 189.771V185.212C159.782 182.689 160.667 180.539 162.437 178.761C164.208 176.983 166.349 176.094 168.86 176.094C170.63 176.094 172.212 176.535 173.604 177.416C173.709 177.188 173.868 176.968 174.08 176.755C174.519 176.315 175.048 176.094 175.669 176.094C176.289 176.094 176.819 176.322 177.257 176.778C177.711 177.219 177.938 177.751 177.938 178.374V196.609C177.938 197.232 177.711 197.771 177.257 198.227C176.819 198.668 176.289 198.888 175.669 198.888C175.048 198.888 174.519 198.66 174.08 198.204C173.868 198.007 173.709 197.794 173.604 197.566ZM164.321 172.196C163.701 172.196 163.164 171.976 162.71 171.535C162.271 171.079 162.052 170.54 162.052 169.917C162.052 169.294 162.271 168.762 162.71 168.321C163.164 167.866 163.807 167.486 164.639 167.182C165.486 166.878 166.818 167.106 168.633 167.866C170.177 168.489 171.198 168.61 171.697 168.23C172.212 167.835 172.779 167.638 173.399 167.638C174.02 167.638 174.549 167.866 174.988 168.321C175.442 168.762 175.669 169.294 175.669 169.917C175.669 170.54 175.442 171.079 174.988 171.535C174.549 171.976 173.868 172.386 172.945 172.766C172.038 173.146 170.676 172.956 168.86 172.196C167.166 171.421 166.137 171.231 165.774 171.627C165.426 172.006 164.942 172.196 164.321 172.196Z" fill="#7E7E7E"/>
<path d="M182.477 185.212C182.477 182.689 183.363 180.539 185.133 178.761C186.903 176.983 189.044 176.094 191.556 176.094C194.067 176.094 196.208 176.983 197.978 178.761C199.748 180.539 200.634 182.689 200.634 185.212V189.771C200.634 192.293 199.748 194.443 197.978 196.221C196.208 197.999 194.067 198.888 191.556 198.888C189.044 198.888 186.903 197.999 185.133 196.221C183.363 194.443 182.477 192.293 182.477 189.771V185.212ZM196.095 185.212C196.095 183.951 195.648 182.879 194.756 181.998C193.878 181.101 192.811 180.653 191.556 180.653C190.3 180.653 189.225 181.101 188.333 181.998C187.455 182.879 187.016 183.951 187.016 185.212V189.771C187.016 191.032 187.455 192.111 188.333 193.007C189.225 193.889 190.3 194.329 191.556 194.329C192.811 194.329 193.878 193.889 194.756 193.007C195.648 192.111 196.095 191.032 196.095 189.771V185.212Z" fill="#7E7E7E"/>
</svg>
